<svg width="32" height="32" viewBox="0 0 32 32" fill="none" xmlns="http://www.w3.org/2000/svg">
<path d="M18.7291 4.40541C17.8658 4.14186 16.9495 4.00008 16 4.00008C10.8453 4.00008 6.66665 8.17876 6.66665 13.3334V18.2966C6.66665 18.5337 6.5725 18.7609 6.40493 18.9285L5.72394 19.6095C5.4739 19.8597 5.33331 20.1987 5.33331 20.5523V21.3334C5.33331 22.0698 5.93027 22.6667 6.66665 22.6667H25.3333C26.0697 22.6667 26.6666 22.0698 26.6666 21.3334V20.5523C26.6666 20.1987 26.526 19.8596 26.276 19.6095L25.595 18.9285C25.4274 18.7609 25.3333 18.5337 25.3333 18.2966V13.3334C25.3333 13.0982 25.3248 12.865 25.3073 12.635M20 22.6667V24.0001C20 26.2092 18.2091 28.0001 16 28.0001C13.7908 28.0001 12 26.2092 12 24.0001V22.6667H20ZM28 8.00008C28 10.9456 25.6122 13.3334 22.6666 13.3334C19.7211 13.3334 17.3333 10.9456 17.3333 8.00008C17.3333 5.05456 19.7211 2.66675 22.6666 2.66675C25.6122 2.66675 28 5.05456 28 8.00008Z" stroke="#303030" stroke-linecap="round" stroke-linejoin="round"/>
</svg>
