<svg width="25" height="24" viewBox="0 0 25 24" fill="none" xmlns="http://www.w3.org/2000/svg">
<path d="M4.66699 7.5C4.39085 7.5 4.16699 7.72386 4.16699 8C4.16699 8.27614 4.39085 8.5 4.66699 8.5V7.5ZM20.667 8.5C20.9431 8.5 21.167 8.27614 21.167 8C21.167 7.72386 20.9431 7.5 20.667 7.5V8.5ZM5.75879 19.782L5.98578 19.3365L5.75879 19.782ZM4.88498 18.908L4.43948 19.135H4.43948L4.88498 18.908ZM20.4492 18.908L20.0037 18.681L20.4492 18.908ZM19.5748 19.782L19.3478 19.3365L19.5748 19.782ZM19.5748 4.21799L19.8018 3.77248L19.5748 4.21799ZM20.4492 5.09204L20.0037 5.31904L20.4492 5.09204ZM5.75879 4.21799L5.98578 4.66349L5.75879 4.21799ZM4.88498 5.09204L5.33048 5.31904L4.88498 5.09204ZM17.167 2C17.167 1.72386 16.9431 1.5 16.667 1.5C16.3909 1.5 16.167 1.72386 16.167 2H17.167ZM16.167 4C16.167 4.27614 16.3909 4.5 16.667 4.5C16.9431 4.5 17.167 4.27614 17.167 4H16.167ZM9.16699 2C9.16699 1.72386 8.94313 1.5 8.66699 1.5C8.39085 1.5 8.16699 1.72386 8.16699 2H9.16699ZM8.16699 4C8.16699 4.27614 8.39085 4.5 8.66699 4.5C8.94313 4.5 9.16699 4.27614 9.16699 4H8.16699ZM4.66699 8.5H20.667V7.5H4.66699V8.5ZM7.86719 4.5H17.4672V3.5H7.86719V4.5ZM20.167 7.19995V16.8H21.167V7.19995H20.167ZM17.4672 19.5H7.86719V20.5H17.4672V19.5ZM5.16699 16.8V7.19995H4.16699V16.8H5.16699ZM7.86719 19.5C7.2989 19.5 6.90263 19.4996 6.5941 19.4744C6.29137 19.4497 6.11744 19.4036 5.98578 19.3365L5.53179 20.2275C5.82796 20.3784 6.14818 20.4413 6.51267 20.4711C6.87136 20.5004 7.31537 20.5 7.86719 20.5V19.5ZM4.16699 16.8C4.16699 17.3518 4.1666 17.7957 4.1959 18.1543C4.22567 18.5187 4.28858 18.8389 4.43948 19.135L5.33048 18.681C5.26339 18.5494 5.2173 18.3755 5.19258 18.0729C5.16738 17.7644 5.16699 17.3683 5.16699 16.8H4.16699ZM5.98578 19.3365C5.70362 19.1927 5.47433 18.9634 5.33048 18.681L4.43948 19.135C4.67912 19.6054 5.06131 19.9878 5.53179 20.2275L5.98578 19.3365ZM20.167 16.8C20.167 17.3683 20.1667 17.7645 20.1415 18.073C20.1168 18.3756 20.0708 18.5494 20.0037 18.681L20.8947 19.135C21.0456 18.8388 21.1085 18.5186 21.1382 18.1542C21.1674 17.7957 21.167 17.3517 21.167 16.8H20.167ZM17.4672 20.5C18.019 20.5 18.4628 20.5004 18.8213 20.4711C19.1857 20.4413 19.5057 20.3784 19.8018 20.2275L19.3478 19.3365C19.2161 19.4036 19.0423 19.4497 18.7398 19.4744C18.4315 19.4996 18.0355 19.5 17.4672 19.5V20.5ZM20.0037 18.681C19.86 18.963 19.6303 19.1925 19.3478 19.3365L19.8018 20.2275C20.2719 19.9879 20.6549 19.6057 20.8947 19.135L20.0037 18.681ZM17.4672 4.5C18.0355 4.5 18.4315 4.50039 18.7399 4.52559C19.0423 4.55031 19.2161 4.59638 19.3478 4.66349L19.8018 3.77248C19.5057 3.6216 19.1857 3.55869 18.8213 3.52891C18.4628 3.49961 18.019 3.5 17.4672 3.5V4.5ZM21.167 7.19995C21.167 6.6482 21.1674 6.20429 21.1382 5.84575C21.1085 5.48136 21.0456 5.16124 20.8947 4.86505L20.0037 5.31904C20.0708 5.45066 20.1168 5.62444 20.1415 5.92703C20.1667 6.23546 20.167 6.6316 20.167 7.19995H21.167ZM19.3478 4.66349C19.6302 4.8074 19.86 5.037 20.0037 5.31904L20.8947 4.86505C20.6549 4.39444 20.272 4.01206 19.8018 3.77248L19.3478 4.66349ZM7.86719 3.5C7.31538 3.5 6.87136 3.49961 6.51268 3.52891C6.14819 3.55868 5.82797 3.62157 5.53179 3.77248L5.98578 4.66349C6.11743 4.59641 6.29136 4.55032 6.59409 4.52559C6.90262 4.50039 7.29889 4.5 7.86719 4.5V3.5ZM5.16699 7.19995C5.16699 6.63165 5.16738 6.23551 5.19258 5.92711C5.2173 5.62455 5.26339 5.45072 5.33048 5.31904L4.43948 4.86505C4.28858 5.16119 4.22568 5.48126 4.1959 5.84567C4.1666 6.20424 4.16699 6.64815 4.16699 7.19995H5.16699ZM5.53179 3.77248C5.06126 4.01223 4.67909 4.39477 4.43948 4.86505L5.33048 5.31904C5.47436 5.03666 5.70367 4.80723 5.98578 4.66349L5.53179 3.77248ZM12.417 16.5C12.8312 16.5 13.167 16.1642 13.167 15.75H12.167C12.167 15.6119 12.2789 15.5 12.417 15.5V16.5ZM13.167 15.75V12.25H12.167V15.75H13.167ZM13.167 12.25C13.167 11.8358 12.8312 11.5 12.417 11.5V12.5C12.2789 12.5 12.167 12.3881 12.167 12.25H13.167ZM12.417 11.5H8.91699V12.5H12.417V11.5ZM8.91699 11.5C8.50278 11.5 8.16699 11.8358 8.16699 12.25H9.16699C9.16699 12.3881 9.05506 12.5 8.91699 12.5V11.5ZM8.16699 12.25V15.75H9.16699V12.25H8.16699ZM8.16699 15.75C8.16699 16.1642 8.50278 16.5 8.91699 16.5V15.5C9.05506 15.5 9.16699 15.6119 9.16699 15.75H8.16699ZM8.91699 16.5H12.417V15.5H8.91699V16.5ZM16.167 2V4H17.167V2H16.167ZM8.16699 2V4H9.16699V2H8.16699Z" fill="#303030"/>
</svg>
